<svg xmlns="http://www.w3.org/2000/svg" width="782" height="782" viewBox="0 0 782 782">
  <rect width="782" height="782" rx="170" fill="#0A0A0C"/>
  <g transform="translate(0,92)">
    <path fill="#FFFFFF" transform="translate(482.875,34.75)" d="M0 0 C1.27359375 -0.020625 2.5471875 -0.04125 3.859375 -0.0625 C18.93619857 -0.1241639 30.66416055 3.25727143 42.125 13.25 C43.68832143 15.33012767 45.09293276 17.34069664 46.4609375 19.5390625 C46.84680023 20.15028961 47.23266296 20.76151672 47.63021851 21.39126587 C51.85378979 28.21867725 55.32710165 35.37309672 58.75 42.625 C59.37161285 43.91964707 59.99400858 45.21391854 60.6171875 46.5078125 C64.06969798 53.71124952 67.34591682 60.97849666 70.52139282 68.30784607 C73.29007411 74.67922888 76.23035354 80.96328558 79.20373535 87.24118042 C84.69594676 98.84435941 90.08401073 110.49132038 95.375 122.1875 C100.99851671 134.61332951 106.6949877 147.00371183 112.4375 159.375 C112.83771362 160.23721161 113.23792725 161.09942322 113.65026855 161.98776245 C115.27326007 165.48405375 116.8962836 168.98033017 118.51950073 172.47651672 C123.10765107 182.36173572 127.67115445 192.25830331 132.23388672 202.15527344 C136.48343757 211.3722931 140.74165327 220.58515119 145.01953125 229.7890625 C146.65907739 233.31760466 148.29838431 236.84625786 149.9375 240.375 C150.33915375 241.23951782 150.7408075 242.10403564 151.15463257 242.99475098 C156.6982669 254.93333192 162.13099197 266.91407454 167.46582031 278.94726562 C171.90267629 288.89381221 176.62482172 298.69137106 181.45825195 308.45019531 C190.125 326.09525359 190.125 326.09525359 190.125 332.25 C106.305 332.25 22.485 332.25 -63.875 332.25 C-63.875 331.26 -63.875 330.27 -63.875 329.25 C-63.215 329.25 -62.555 329.25 -61.875 329.25 C-61.67777344 328.45335937 -61.48054688 327.65671875 -61.27734375 326.8359375 C-59.37171669 321.96305269 -56.49009258 318.09830593 -53.4375 313.875 C-52.16479931 312.08633958 -50.89267088 310.29727185 -49.62109375 308.5078125 C-48.98800293 307.62125977 -48.35491211 306.73470703 -47.70263672 305.82128906 C-45.09764784 302.15634879 -42.54328531 298.4579164 -40 294.75 C-39.55229248 294.1003125 -39.10458496 293.450625 -38.64331055 292.78125 C-35.94477962 288.85392822 -33.3366975 284.87725243 -30.75 280.875 C-23.26161808 269.62714471 -14.0394868 259.50369224 -0.875 255.25 C3.06951105 254.69207365 6.96175743 254.645294 10.94140625 254.640625 C12.03847397 254.62408875 13.13554169 254.60755249 14.26585388 254.59051514 C17.73979421 254.54226962 21.21329751 254.52071562 24.6875 254.5 C27.05536025 254.47182083 29.42320035 254.4418907 31.79101562 254.41015625 C37.56893169 254.33651703 43.34672603 254.28473749 49.125 254.25 C48.82160706 253.61927078 48.51821411 252.98854156 48.20562744 252.33869934 C41.88106906 239.18757524 35.65367485 225.99639182 29.54223633 212.74511719 C26.82563632 206.86485497 24.06959341 201.01946246 21.125 195.25 C20.48115284 193.97557244 19.83793123 192.70082868 19.1953125 191.42578125 C18.71916504 190.4814624 18.71916504 190.4814624 18.23339844 189.51806641 C13.08861269 179.28724866 8.13145576 169.02221178 4.00390625 158.33203125 C3.10927947 156.06118115 3.10927947 156.06118115 1.375 153.4375 C-0.10061793 150.85516862 -0.12592168 149.17741964 0.125 146.25 C-2.5246957 147.57484785 -2.69262787 148.80488707 -3.875 151.5 C-6.30242902 156.51100845 -9.35463386 160.66831589 -12.80541992 165.02197266 C-17.6547243 171.16648778 -22.02278837 177.61237088 -26.41113281 184.09033203 C-28.95139091 187.83801768 -31.50713836 191.57510342 -34.0625 195.3125 C-34.87738892 196.50564819 -34.87738892 196.50564819 -35.70874023 197.72290039 C-39.21747773 202.85261872 -42.75945264 207.9578672 -46.3203125 213.05151367 C-55.3700187 225.99978385 -64.22525271 239.0744042 -73.06356812 252.16738892 C-73.54403595 252.87914276 -74.02450378 253.59089661 -74.51953125 254.32421875 C-74.99218414 255.0244516 -75.46483704 255.72468445 -75.95181274 256.44613647 C-80.02076288 262.47165287 -84.11875725 268.47684263 -88.23168945 274.47241211 C-93.33126772 281.90786681 -98.39826973 289.36535897 -103.46533203 296.82299805 C-106.72949674 301.62645961 -109.99471994 306.4291128 -113.2734375 311.22265625 C-122.00395264 323.98915721 -130.66317729 336.80340375 -139.3125 349.625 C-139.94964935 350.5694397 -140.58679871 351.51387939 -141.24325562 352.48693848 C-148.50944022 363.26012771 -155.75421914 374.04635084 -162.9375 384.875 C-167.7043539 392.05982328 -172.57722097 399.15169986 -177.58447266 406.17089844 C-181.61355198 411.83272137 -185.47502266 417.5961436 -189.31225586 423.38916016 C-193.95841304 430.39788489 -198.70250987 437.33672744 -203.4609375 444.26953125 C-206.45931941 448.63832857 -209.43995988 453.01898824 -212.41772461 457.40185547 C-214.93767617 461.10661611 -217.46671101 464.805118 -219.99755859 468.50244141 C-221.24325429 470.32546603 -222.48580159 472.15064621 -223.72509766 473.97802734 C-246.71770341 507.85507069 -246.71770341 507.85507069 -266.875 514.25 C-270.1794257 514.7439144 -273.39471284 514.76039052 -276.73095703 514.70410156 C-277.6590065 514.70468567 -278.58705597 514.70526978 -279.54322815 514.70587158 C-282.57348654 514.70311203 -285.60272858 514.67212176 -288.6328125 514.640625 C-290.74843814 514.63315502 -292.86407075 514.62746567 -294.97970581 514.62347412 C-300.52001395 514.60827742 -306.05989573 514.56904731 -311.60003662 514.5246582 C-317.2645491 514.48357638 -322.92913116 514.46543562 -328.59375 514.4453125 C-339.68768626 514.40254704 -350.78130753 514.3343685 -361.875 514.25 C-359.89840012 506.77311415 -359.89840012 506.77311415 -357.71118164 503.58813477 C-357.0739492 502.64533409 -357.0739492 502.64533409 -356.42384338 501.68348694 C-355.96557663 501.02610031 -355.50730988 500.36871368 -355.03515625 499.69140625 C-354.55356552 498.98459213 -354.07197479 498.27777802 -353.57579041 497.54954529 C-352.03845344 495.29771656 -350.48829975 493.05507213 -348.9375 490.8125 C-347.93077936 489.34238629 -346.92491301 487.87168719 -345.91992188 486.40039062 C-343.41370943 482.73606646 -340.89658473 479.07940507 -338.37533569 475.42541504 C-335.92045602 471.86595685 -333.47231856 468.30186773 -331.0234375 464.73828125 C-330.11632806 463.41883936 -329.20918436 462.09942102 -328.30200195 460.7800293 C-327.88431549 460.17250824 -327.46662903 459.56498718 -327.0362854 458.9390564 C-326.02055823 457.46171028 -325.00478943 455.98439279 -323.98901367 454.50708008 C-318.24480438 446.14814505 -312.53792557 437.76857427 -306.9375 429.3125 C-302.76321578 423.01288795 -298.48113368 416.80011134 -294.125 410.625 C-288.21411046 402.24432913 -282.50975031 393.73911649 -276.84790039 385.1887207 C-272.51384705 378.66060863 -268.08471874 372.21148943 -263.5625 365.8125 C-258.89211046 359.20306481 -254.40921727 352.51025216 -250.05957031 345.6862793 C-245.88746311 339.18050438 -241.45357741 332.87061854 -237.00048828 326.55517578 C-231.82392624 319.20619221 -226.82398243 311.75329594 -221.875 304.25 C-215.54021174 294.65478926 -209.13420219 285.13285393 -202.46296692 275.76779175 C-199.01960461 270.91619303 -195.67819194 266.00761729 -192.39453125 261.046875 C-185.4975837 250.66610024 -178.53348374 240.33115047 -171.5625 230 C-170.92038574 229.04802734 -170.27827148 228.09605469 -169.61669922 227.11523438 C-162.89140276 217.14514537 -156.16597817 207.17551523 -149.375 197.25 C-139.02335296 182.11935552 -128.8110491 166.89382695 -118.56620789 151.6907959 C-114.35251888 145.43891785 -110.13332017 139.19079344 -105.91015625 132.9453125 C-91.47035083 111.58743771 -77.12021462 90.17182671 -62.84057617 68.70654297 C-56.60315507 59.33142047 -50.35952922 49.96037363 -44.09765625 40.6015625 C-43.04425454 39.02605256 -41.9908688 37.45053195 -40.9375 35.875 C-40.07717163 34.5902478 -40.07717163 34.5902478 -39.19946289 33.27954102 C-36.17714588 28.75288462 -33.1951738 24.2056025 -30.2734375 19.61328125 C-29.69198975 18.70304199 -29.11054199 17.79280273 -28.51147461 16.85498047 C-27.40840358 15.12310031 -26.31242599 13.38667411 -25.22485352 11.64501953 C-18.18416301 0.60530788 -12.56491494 0.04937098 0 0 Z "/>
    <path fill="#196DFB" transform="translate(117.78271484375,33.6435546875)" d="M0 0 C1.11695503 -0.00201888 2.23391006 -0.00403776 3.38471222 -0.00611782 C7.06604932 -0.00905019 10.74693809 0.00943063 14.42822266 0.02832031 C17.04265244 0.03100927 19.65708375 0.0324626 22.27151489 0.03276062 C28.53991829 0.03606143 34.80816363 0.05575954 41.07651055 0.08159167 C46.17380566 0.10221759 51.27108032 0.11594972 56.3684082 0.12527466 C91.66805079 0.19059166 126.96453354 0.37192423 162.26025391 0.92749023 C165.29019245 0.97474751 168.32014011 1.02135968 171.35009766 1.06738281 C172.12381966 1.07913607 172.89754166 1.09088932 173.69470978 1.10299873 C203.53943672 1.54730404 233.38886297 1.69090449 263.23595047 1.90223551 C266.37570749 1.9245009 269.51546334 1.9469295 272.6552192 1.96935821 C291.17588584 2.10162807 309.69657224 2.23080929 328.21728516 2.35644531 C327.42507034 3.96538344 326.63004577 5.5729383 325.83383179 7.17990112 C325.39140326 8.07525511 324.94897472 8.97060909 324.49313927 9.89309502 C323.07226979 12.63643317 321.45722762 15.04568484 319.56884766 17.48925781 C316.27790065 21.88078382 313.15475068 26.34413292 310.11572266 30.91113281 C309.67167084 31.57818741 309.22761902 32.245242 308.77011108 32.93251038 C307.37574399 35.03099383 305.98398689 37.1311935 304.59228516 39.23144531 C303.61579692 40.70124799 302.63906933 42.17089168 301.66210938 43.64038086 C299.73214164 46.5438716 297.80329766 49.44810311 295.87548828 52.35302734 C291.8157401 58.46929647 287.74478002 64.57812341 283.66259766 70.67944336 C281.32449422 74.17688042 278.99959132 77.67940133 276.73291016 81.22363281 C276.02650391 82.31933594 275.32009766 83.41503906 274.59228516 84.54394531 C274.02251953 85.445 273.45275391 86.34605469 272.86572266 87.27441406 C270.98496479 89.64987364 270.04539853 90.30541144 267.21728516 91.35644531 C264.59647123 91.54184172 262.0842649 91.61952296 259.46484375 91.59936523 C258.29766312 91.60221275 258.29766312 91.60221275 257.10690308 91.6051178 C254.52640774 91.6088285 251.94619322 91.59809624 249.36572266 91.58691406 C247.55042555 91.58571966 245.73512781 91.58526965 243.91983032 91.58552551 C240.09820727 91.58395883 236.27667763 91.57567083 232.45507812 91.56225586 C227.63657933 91.54552844 222.81818474 91.5415171 217.99966049 91.54208183 C197.71833275 91.5414401 177.47579184 91.41590992 157.21728516 90.35644531 C157.22981323 91.07637665 157.24234131 91.79630798 157.25524902 92.53805542 C157.88090556 128.87472574 158.34899745 165.21349184 158.44946289 201.5557251 C158.45976337 205.15617663 158.47713348 208.75648415 158.50073242 212.35687256 C158.5282464 216.63259283 158.540448 220.90810034 158.54135895 225.18390656 C158.54400365 226.75008101 158.55162634 228.31625721 158.56490326 229.88237762 C158.66754127 242.7124803 157.90183846 255.38971382 151.02978516 266.60644531 C150.68109375 267.22261719 150.33240234 267.83878906 149.97314453 268.47363281 C147.78981566 272.20332642 145.31148086 275.53046718 142.56884766 278.86816406 C137.66618848 284.88961613 133.44299975 291.30861646 129.18087769 297.78915405 C126.77869016 301.44070304 124.35968894 305.08110948 121.94384766 308.72363281 C121.46066574 309.45315659 120.97748383 310.18268036 120.47966003 310.93431091 C115.91029686 317.83072652 111.29725649 324.69657093 106.65478516 331.54394531 C105.9716626 332.557229 105.28854004 333.5705127 104.5847168 334.61450195 C101.32655895 339.41186277 97.99704526 343.9609184 94.21728516 348.35644531 C90.70350828 352.97199969 87.48501888 357.55955386 85.09228516 362.85644531 C82.61037209 368.11909709 79.23364957 372.58044004 75.77978516 377.23144531 C70.75441666 384.00277925 66.55716322 390.57864709 63.21728516 398.35644531 C61.89728516 398.35644531 60.57728516 398.35644531 59.21728516 398.35644531 C59.21728516 297.04644531 59.21728516 195.73644531 59.21728516 91.35644531 C11.69728516 91.35644531 -35.82271484 91.35644531 -84.78271484 91.35644531 C-83.89818666 86.93380437 -83.62007728 85.68286814 -81.11474609 82.37988281 C-80.55811279 81.63625488 -80.00147949 80.89262695 -79.42797852 80.12646484 C-78.8231665 79.3361084 -78.21835449 78.54575195 -77.59521484 77.73144531 C-76.31639773 76.02844891 -75.03775696 74.32532009 -73.75927734 72.62207031 C-73.10088867 71.75130859 -72.4425 70.88054687 -71.76416016 69.98339844 C-68.63705541 65.83755725 -65.55162576 61.66130649 -62.47021484 57.48144531 C-61.88304688 56.68625488 -61.29587891 55.89106445 -60.69091797 55.07177734 C-56.68572407 49.63082326 -52.81131348 44.11976142 -49.00146484 38.54003906 C-46.4374403 34.86102497 -43.77087535 31.26703057 -41.09521484 27.66894531 C-37.99997788 23.50313545 -35.07687156 19.35326934 -32.47021484 14.85644531 C-26.20932481 4.25702303 -26.20932481 4.25702303 -21.24236107 2.41365433 C-14.04930182 0.63304898 -7.39659872 -0.06670757 0 0 Z "/>
    <path fill="#0C51EC" transform="translate(430.22998046875,383.627685546875)" d="M0 0 C0.80422897 -0.00365067 1.60845795 -0.00730133 2.4370575 -0.01106262 C5.08732464 -0.01914449 7.73697517 -0.00556574 10.38720703 0.0090332 C12.24602254 0.0095526 14.1048386 0.00903182 15.96365356 0.00752258 C19.86240838 0.00761224 23.76095616 0.01801789 27.65966797 0.03613281 C32.61284146 0.05866147 37.56570854 0.05939191 42.51891899 0.05261517 C46.3626875 0.04924038 50.20638858 0.05597311 54.0501442 0.0657444 C55.87345143 0.06954852 57.69676625 0.07076491 59.52007675 0.06915855 C82.77292019 0.0657372 109.3927438 1.28721174 127.27001953 18.12231445 C137.6507855 29.32261457 140.38168467 40.6623067 140.07861328 55.4387207 C139.47565516 68.71130517 131.75673435 79.28586608 122.40673828 88.27075195 C104.45259968 102.58086539 80.94089639 103.47609057 59.03173828 103.64575195 C58.32567822 103.65152693 57.61961815 103.6573019 56.89216232 103.66325188 C50.24824256 103.71456478 43.6043184 103.74577885 36.96020508 103.75317383 C33.28875181 103.75823721 29.61781853 103.78269773 25.94654274 103.81850052 C24.57014932 103.82815839 23.19368326 103.83070903 21.81726646 103.82532883 C11.6715712 103.78745664 1.21261341 104.4847474 -7.29248047 110.55981445 C-10.6875743 115.48817646 -12.78201267 120.58044326 -14.22998047 126.37231445 C59.52501953 126.86731445 59.52501953 126.86731445 134.77001953 127.37231445 C130.28193872 137.47049627 130.28193872 137.47049627 126.45751953 141.87231445 C125.67119141 142.79657227 124.88486328 143.72083008 124.07470703 144.6730957 C123.31416016 145.56383789 122.55361328 146.45458008 121.77001953 147.37231445 C120.52994568 148.92617217 119.29986457 150.48808674 118.08251953 152.05981445 C117.52435547 152.7765332 116.96619141 153.49325195 116.39111328 154.23168945 C115.29394132 155.6804852 114.2240837 157.15030655 113.18017578 158.63793945 C112.67357422 159.3546582 112.16697266 160.07137695 111.64501953 160.80981445 C110.99146484 161.76694336 110.99146484 161.76694336 110.32470703 162.7434082 C107.81604302 165.37183256 104.91265704 166.25544181 101.33668804 166.62120342 C100.48184731 166.62065866 99.62700659 166.62011389 98.7462616 166.61955261 C97.75698669 166.6237471 96.76771179 166.62794159 95.74845886 166.63226318 C94.67300308 166.62664368 93.5975473 166.62102417 92.48950195 166.61523438 C91.34667755 166.61713272 90.20385315 166.61903107 89.02639771 166.62098694 C85.22602572 166.62470471 81.42584354 166.61394858 77.62548828 166.6027832 C74.94509097 166.60158837 72.26470153 166.60108842 69.58430481 166.60139465 C63.93077279 166.60045617 58.27729417 166.59177965 52.6237793 166.578125 C46.92324767 166.56440123 41.2227652 166.55709336 35.5222168 166.55761719 C0.59471075 166.56056078 -34.31236478 166.29213471 -69.22998047 165.37231445 C-69.31912608 159.91892126 -69.34090477 154.6846158 -68.31201172 149.3059082 C-68.11244873 148.25193848 -67.91288574 147.19796875 -67.70727539 146.11206055 C-67.48789307 145.02231934 -67.26851074 143.93257812 -67.04248047 142.80981445 C-66.81471924 141.66593262 -66.58695801 140.52205078 -66.35229492 139.34350586 C-62.66001836 121.26776931 -58.12200981 101.54579056 -44.22998047 88.37231445 C-43.61123047 87.72262695 -42.99248047 87.07293945 -42.35498047 86.40356445 C-24.45129466 68.77114661 0.47841182 67.32872054 24.19189453 67.1262207 C26.18887729 67.10170977 28.18585998 67.07718759 30.18283463 67.05202389 C35.02252898 66.99208855 39.86229272 66.9404456 44.70214844 66.89550781 C47.44533676 66.86968699 50.18838532 66.83882154 52.93145752 66.80271912 C55.49024712 66.76934128 58.0491458 66.74322176 60.60809326 66.72572327 C69.68254972 66.59687126 79.08366498 66.23180514 87.33251953 62.05981445 C88.13818359 61.67180664 88.94384766 61.28379883 89.77392578 60.8840332 C93.25103961 58.25068085 93.6743332 55.04211878 94.27001953 50.87231445 C94.08140055 47.16834086 94.08140055 47.16834086 91.14501953 44.55981445 C83.05692854 38.7826066 73.01816972 39.21956727 63.51049805 39.16699219 C62.39756882 39.15709259 61.28463959 39.14719299 60.13798523 39.13699341 C56.47498674 39.1055135 52.8119753 39.08067451 49.14892578 39.0559082 C46.60301891 39.03532701 44.05711537 39.01433023 41.51121521 38.99293518 C35.50492167 38.94346073 29.49861081 38.89816446 23.49227041 38.85491282 C16.65061169 38.80541137 9.80899927 38.7505414 2.96738541 38.69523323 C-11.09835995 38.58164419 -25.16414982 38.47475554 -39.22998047 38.37231445 C-37.68526483 33.27750175 -35.52045412 29.96723455 -31.97998047 26.05981445 C-28.13184025 21.67781737 -24.70831846 17.28876393 -21.55419922 12.37231445 C-15.90462103 3.83961819 -10.60887164 -0.10839588 0 0 Z "/>
    <path fill="#1162F8" transform="translate(631.6767578125,384.886474609375)" d="M0 0 C0.92065247 0.00007553 1.84130493 0.00015106 2.78985596 0.00022888 C3.77540466 0.00539017 4.76095337 0.01055145 5.77636719 0.01586914 C6.79172546 0.01728409 7.80708374 0.01869904 8.85321045 0.02015686 C12.09325111 0.02575023 15.33322244 0.03830154 18.57324219 0.05102539 C20.77115786 0.05604125 22.96907461 0.060604 25.16699219 0.06469727 C30.55243247 0.07571749 35.93783238 0.09244906 41.32324219 0.11352539 C41.46014603 5.51866034 41.27370946 10.45803667 40.07324219 15.76196289 C39.79859131 16.99672363 39.52394043 18.23148437 39.2409668 19.50366211 C38.93528623 20.83200227 38.62937133 22.16028853 38.32324219 23.48852539 C38.00678315 24.89345943 37.69112715 26.29857456 37.3762207 27.70385742 C36.54088457 31.41936863 35.69342106 35.13200427 34.84259033 38.84399414 C34.15613104 41.84379464 33.47571473 44.84495192 32.79524231 47.84611511 C29.926142 60.49658842 27.01395275 73.13704687 24.08666992 85.77416992 C21.24537477 98.04389381 18.46184959 110.32611046 15.69824219 122.61352539 C15.50996857 123.45047943 15.32169495 124.28743347 15.12771606 125.14974976 C14.75743775 126.79641421 14.38737437 128.44312702 14.01753235 130.08988953 C13.65569554 131.70062117 13.29330567 133.31122869 12.93034363 134.92170715 C12.01106744 139.00903397 11.10809109 143.0990693 10.23046875 147.19555664 C10.05303131 148.01616577 9.87559387 148.8367749 9.69277954 149.68225098 C9.3568746 151.2386587 9.02521138 152.79599029 8.69857788 154.35437012 C7.91302344 157.97810897 7.00020256 160.75960464 5.32324219 164.11352539 C-9.19675781 164.11352539 -23.71675781 164.11352539 -38.67675781 164.11352539 C-36.35582527 144.3855988 -36.35582527 144.3855988 -34.92675781 137.61352539 C-34.75756836 136.78771973 -34.58837891 135.96191406 -34.4140625 135.11108398 C-32.84083039 127.58443975 -31.00454221 120.12476022 -29.16992188 112.65844727 C-26.7907137 102.85340393 -24.72600958 92.99140261 -22.67675781 83.11352539 C-20.33319698 71.82886612 -17.93454102 60.57057952 -15.23925781 49.36352539 C-14.99240234 48.33485352 -14.74554687 47.30618164 -14.49121094 46.24633789 C-12.81563724 39.39128425 -12.81563724 39.39128425 -11.67675781 37.11352539 C-20.91675781 37.11352539 -30.15675781 37.11352539 -39.67675781 37.11352539 C-37.42190344 30.34896228 -37.42190344 30.34896228 -34.55175781 27.23852539 C-33.93042969 26.56047852 -33.30910156 25.88243164 -32.66894531 25.18383789 C-30.03937996 22.45115232 -27.35429129 19.77930973 -24.64941406 17.12133789 C-22.70785204 15.14517377 -20.90781289 13.09906224 -19.11425781 10.98852539 C-13.38637098 4.35830022 -9.05604401 -0.02487924 0 0 Z "/>
  </g>
</svg>
